<?xml version="1.0" encoding="UTF-8"?>
<svg id="Capa_2" data-name="Capa 2" xmlns="http://www.w3.org/2000/svg" viewBox="0 0 2000 406.5">
  <defs>
    <style>
      .cls-1 {
        fill: #fff;
      }

      .cls-2 {
        fill: #00baf0;
      }
    </style>
  </defs>
  <g id="logos">
    <g>
      <g>
        <g>
          <path class="cls-1" d="M613.7,253.9c12.5-.3,22.2-2.4,34-7.1l-11.5-35c-6.1,3-13.5,5-19.8,5-12.8,0-21.5-7.7-21.5-23.6v-71.7h46.1v-35.4h-45.8v-47.1l-41.1,4.4v42.7h-31v35.4h31v71.7c0,41.4,23.6,61.9,59.6,60.6Z"/>
          <path class="cls-1" d="M1330.4,108.8c-9.4-16.5-30.6-26.9-52.9-26.9-48.5-.3-86.5,29.6-86.5,86.8s36.4,88.5,85.5,88.2c18.5-.3,44.4-9.8,53.9-29.3l2,24.2h38.7V85.9h-39.4l-1.3,22.9ZM1281.3,219.2c-27.3,0-49.2-18.9-49.2-50.5s21.9-50.2,49.2-50.2c64.6,0,64.6,100.7,0,100.7Z"/>
          <path class="cls-1" d="M1467.1,149.9c-21.2-1.3-31-7.4-31-18.2s10.8-16.5,30.3-16.5,29.3,3.7,41.1,14.8l22.9-26.9c-19.2-16.8-38.7-21.9-64.6-21.9s-70,13.5-70,51.8,37.4,49.2,68.7,51.5c23.6,1.3,33,6.1,33,17.5s-14.5,20.2-30,19.9c-18.5-.3-45.4-10.1-57.2-23.2l-20.2,29.3c24.2,25.2,50.5,29.6,76.8,29.6,47.5,0,71.4-25.2,71.4-54.5,0-44.1-39.7-51.2-71-53.2Z"/>
          <path class="cls-1" d="M1689.3,85.9l-1.3,22.9c-9.4-16.5-30.6-26.9-52.8-26.9-48.5-.3-86.5,29.6-86.5,86.8s36.4,88.5,85.5,88.2c18.5-.3,44.4-9.8,53.9-29.3l2,24.2h38.7V85.9h-39.4ZM1638.8,219.2c-27.3,0-49.2-18.9-49.2-50.5s21.9-50.2,49.2-50.2c64.6,0,64.6,100.7,0,100.7Z"/>
          <path class="cls-1" d="M743.4,81c-53.9,0-88.2,36.4-88.2,86.9s34,88.5,91.2,88.5,53.9-8.7,71.4-26.9l-26.3-25.9c-9.4,9.8-29.3,15.5-44.4,15.5-29,0-46.8-14.8-49.5-35.4h129.6c6.4-68.3-28.3-102.7-83.8-102.7ZM698.3,149.7c6.1-21.5,24.2-32.3,46.5-32.3s40.4,10.8,43.1,32.3h-89.5Z"/>
          <path class="cls-1" d="M930.6,217.7c-25.6,0-47.1-16.8-47.1-48.5s20.2-49.1,47.8-49.1,23.6,4.4,33.3,13.1l25.9-27.3c-18.2-17.8-36.4-24.6-59.9-24.6-48.1,0-88.2,29-88.2,87.9s40.1,87.9,88.2,87.9,44.8-7.4,64-26.3l-27.6-26.9c-10.1,10.1-23.2,13.8-36.4,13.8Z"/>
          <path class="cls-1" d="M1098.9,83.3c-20.9,0-37.7,8.4-54.5,24.9l-2.7-22.6h-36.7v166.3h40.7v-84.8c0-25.2,17.2-46.5,42.4-46.5s40.1,19.2,40.1,44.4v86.8h41.1v-87.2c0-52.2-31.3-81.5-70.4-81.5Z"/>
        </g>
        <g>
          <polygon class="cls-2" points="81.2 243.5 81.2 324.7 162.4 324.7 162.4 243.5 162.4 162.4 81.2 162.4 81.2 243.5"/>
          <polygon class="cls-2" points="81.2 81.2 0 81.2 0 162.4 81.2 162.4 81.2 81.2 162.4 81.2 162.4 0 81.2 0 81.2 81.2"/>
          <polygon class="cls-2" points="324.8 0 324.8 81.2 324.8 162.4 324.8 243.5 324.8 324.7 251.7 324.7 243.6 324.7 162.4 324.7 162.4 405.9 243.6 405.9 251.7 405.9 324.8 405.9 406 324.7 406 243.5 406 162.4 406 81.2 406 0 324.8 0"/>
        </g>
      </g>
      <g>
        <polygon class="cls-1" points="853 350.7 842.5 350.7 842.5 405.8 876.8 405.8 876.8 396.8 853 396.8 853 350.7"/>
        <polygon class="cls-1" points="919.3 382.5 946 382.5 946 373.8 919.3 373.8 919.3 359.5 949.1 359.5 949.1 350.7 908.7 350.7 908.7 405.8 950 405.8 950 397 919.3 397 919.3 382.5"/>
        <path class="cls-1" d="M1001.8,350.7l-24.3,55.1h11l4.9-12h26.7l5,12h11.3l-23.9-55.1h-10.8ZM997,385.2l9.8-23.9,9.8,23.9h-19.6Z"/>
        <path class="cls-1" d="M1106.4,384.1c3.9-3.5,5.8-8.3,5.8-14.6s-1.9-10.6-5.8-13.9c-3.9-3.3-9.4-5-16.5-5h-23v55.1h10.6v-16.5h12.4c.7,0,1.3,0,1.9,0l9.6,16.5h12l-12.2-18.4c2-.8,3.8-1.9,5.3-3.2ZM1077.4,359.5h12.4c3.9,0,7,.9,9.1,2.6,2.2,1.7,3.2,4.3,3.2,7.8s-1.1,6.3-3.2,8.1c-2.2,1.8-5.2,2.7-9.1,2.7h-12.4v-21.1Z"/>
        <polygon class="cls-1" points="1185.9 389.3 1157.5 350.7 1147.5 350.7 1147.5 405.8 1157.8 405.8 1157.8 367.3 1186 405.8 1196.1 405.8 1196.1 350.7 1185.9 350.7 1185.9 389.3"/>
        <rect class="cls-1" x="1233.3" y="350.7" width="10.6" height="55.1"/>
        <polygon class="cls-1" points="1319.5 389.3 1291.1 350.7 1281.1 350.7 1281.1 405.8 1291.4 405.8 1291.4 367.3 1319.6 405.8 1329.7 405.8 1329.7 350.7 1319.5 350.7 1319.5 389.3"/>
        <path class="cls-1" d="M1378.9,364.5c1.7-1.8,3.7-3.1,6-4.1,2.3-1,4.8-1.5,7.4-1.5s5.6.6,8.4,1.7c2.8,1.1,5.2,2.7,7.2,4.6l6-7.3c-1.8-1.6-3.9-3-6.2-4.2-2.4-1.2-4.8-2.1-7.4-2.7-2.6-.6-5.2-.9-7.9-.9-4.2,0-8.1.7-11.7,2.1-3.6,1.4-6.8,3.4-9.5,6-2.7,2.6-4.8,5.5-6.3,8.9s-2.2,7.1-2.2,11.1.7,7.7,2.2,11.2c1.5,3.4,3.5,6.4,6.2,9,2.7,2.6,5.8,4.6,9.3,6,3.5,1.4,7.3,2.2,11.5,2.2s5.1-.3,7.7-.9c2.6-.6,5.2-1.5,7.6-2.6,2.4-1.1,4.6-2.4,6.5-3.8v-20.7h-9.2v15.6c-1.3.8-2.7,1.4-4.1,2-2.7,1-5.3,1.5-7.8,1.5s-5.2-.5-7.5-1.5c-2.3-1-4.3-2.4-6.1-4.2-1.7-1.8-3.1-3.8-4.1-6.2-1-2.3-1.5-4.9-1.5-7.6s.5-5.3,1.5-7.6c1-2.3,2.3-4.3,4.1-6.1Z"/>
        <path class="cls-1" d="M1527.2,395.5c-2.6,1.2-5.3,1.8-8,1.8s-5-.5-7.2-1.5c-2.2-1-4.2-2.4-5.9-4.1-1.7-1.7-3-3.8-4-6.1-.9-2.3-1.4-4.8-1.4-7.5s.5-5.2,1.4-7.5c.9-2.3,2.3-4.3,4-6.1,1.7-1.8,3.7-3.1,5.9-4.1,2.2-1,4.6-1.5,7.2-1.5s5.4.6,8,1.9c2.7,1.3,5,3,6.9,5.2l6.1-7.2c-1.8-1.8-3.8-3.4-6.1-4.7-2.3-1.3-4.7-2.3-7.3-3-2.5-.7-5.2-1.1-7.8-1.1-4.1,0-8,.7-11.5,2.1-3.5,1.4-6.6,3.4-9.3,6-2.7,2.6-4.8,5.5-6.2,8.9-1.5,3.4-2.2,7.1-2.2,11.1s.7,7.6,2.2,11.1c1.5,3.5,3.5,6.5,6.1,9.1,2.6,2.6,5.6,4.6,9.1,6,3.5,1.4,7.3,2.2,11.3,2.2s5.3-.4,7.9-1.1c2.6-.8,5.1-1.9,7.5-3.3,2.4-1.4,4.5-3.1,6.3-5l-6.2-6.5c-2,2-4.4,3.7-7,4.8Z"/>
        <polygon class="cls-1" points="1583.3 382.5 1610.1 382.5 1610.1 373.8 1583.3 373.8 1583.3 359.5 1613.2 359.5 1613.2 350.7 1572.7 350.7 1572.7 405.8 1614.1 405.8 1614.1 397 1583.3 397 1583.3 382.5"/>
        <polygon class="cls-1" points="1686.9 389.3 1658.5 350.7 1648.4 350.7 1648.4 405.8 1658.8 405.8 1658.8 367.3 1687 405.8 1697.1 405.8 1697.1 350.7 1686.9 350.7 1686.9 389.3"/>
        <polygon class="cls-1" points="1728.2 359.6 1745.3 359.6 1745.3 405.8 1756 405.8 1756 359.6 1773.1 359.6 1773.1 350.7 1728.2 350.7 1728.2 359.6"/>
        <polygon class="cls-1" points="1814.8 382.5 1841.6 382.5 1841.6 373.8 1814.8 373.8 1814.8 359.5 1844.7 359.5 1844.7 350.7 1804.3 350.7 1804.3 405.8 1845.6 405.8 1845.6 397 1814.8 397 1814.8 382.5"/>
        <path class="cls-1" d="M1919.5,384.1c3.9-3.5,5.8-8.3,5.8-14.6s-1.9-10.6-5.8-13.9c-3.9-3.3-9.4-5-16.5-5h-23v55.1h10.6v-16.5h12.4c.7,0,1.3,0,1.9,0l9.6,16.5h12l-12.2-18.4c2-.8,3.8-1.9,5.3-3.2ZM1890.5,359.5h12.4c3.9,0,7,.9,9.1,2.6,2.2,1.7,3.2,4.3,3.2,7.8s-1.1,6.3-3.2,8.1c-2.2,1.8-5.2,2.7-9.1,2.7h-12.4v-21.1Z"/>
        <path class="cls-1" d="M1998.4,383c-1-1.9-2.5-3.4-4.2-4.6-1.8-1.2-3.7-2.2-5.8-3-2.1-.8-4.2-1.5-6.3-2.1-2.1-.6-4-1.3-5.8-2s-3.2-1.5-4.3-2.6c-1.1-1-1.6-2.4-1.6-4.1s.7-3.2,2.2-4.2c1.5-.9,3.5-1.4,5.9-1.4s3.1.2,4.9.5c1.8.3,3.7.9,5.7,1.7,2,.8,4,1.8,6,3l4.3-8.7c-2.6-1.7-5.7-3.1-9.2-4.2-3.5-1-7.1-1.6-10.8-1.6s-7.8.6-10.8,1.9c-3.1,1.3-5.5,3.1-7.2,5.4-1.7,2.3-2.6,5.1-2.6,8.3s.5,5.2,1.6,7c1.1,1.8,2.5,3.4,4.3,4.5,1.8,1.2,3.7,2.2,5.8,2.9,2.1.8,4.2,1.4,6.3,2,2.1.5,4.1,1.2,5.8,1.9,1.7.7,3.1,1.6,4.2,2.6,1.1,1.1,1.6,2.4,1.6,4.2s-.8,3.7-2.5,4.9c-1.7,1.2-4,1.7-7,1.7s-4-.3-6.3-1c-2.2-.7-4.5-1.6-6.7-2.8-2.2-1.2-4.3-2.7-6.1-4.5l-4.4,8.6c2,1.7,4.2,3.3,6.7,4.6,2.5,1.3,5.1,2.3,8,3.1,2.8.8,5.7,1.1,8.6,1.1s7.7-.7,10.8-2c3.2-1.3,5.7-3.2,7.5-5.6,1.8-2.4,2.8-5.3,2.8-8.7s-.5-5.2-1.6-7.1Z"/>
      </g>
      <path class="cls-2" d="M1959.1,85.8v135.6h-41.5s0,0,0,0c-8.3,0-15.6-1.7-21.8-5.2-6.2-3.4-11-8.2-14.5-14.2-3.4-6-5.2-12.9-5.2-20.7v-95.5h-41v98.9c0,14.6,3.4,27.3,10.3,38.2,6.8,10.9,16.4,19.4,28.8,25.5,12.4,6.1,26.8,9.2,43.2,9.2s0,0,.1,0h0s.1,0,.1,0h40.6l.8-.7,6.3-5.5,34.5-30V85.8h-40.9Z"/>
    </g>
  </g>
</svg>